<svg width="22" height="22" viewBox="0 0 22 22" fill="none" xmlns="http://www.w3.org/2000/svg">
<path d="M11 2.375C12.9954 2.37483 14.9292 3.06657 16.4718 4.33235C18.0144 5.59812 19.0704 7.35962 19.4599 9.31669C19.8493 11.2738 19.5481 13.3053 18.6076 15.0652C17.6671 16.8251 16.1454 18.2045 14.3019 18.9682C12.4584 19.732 10.4071 19.8329 8.49757 19.2538C6.58801 18.6747 4.93832 17.4513 3.8296 15.7923C2.72088 14.1332 2.22173 12.141 2.4172 10.1551C2.61266 8.16928 3.49065 6.31264 4.90156 4.90156C5.70049 4.09807 6.65087 3.46104 7.69767 3.02735C8.74448 2.59366 9.86692 2.37193 11 2.375ZM11 0.5C5.20156 0.5 0.5 5.20156 0.5 11C0.5 16.7984 5.20156 21.5 11 21.5C16.7984 21.5 21.5 16.7984 21.5 11C21.5 5.20156 16.7984 0.5 11 0.5Z" fill="white"/>
</svg>
